#!OML:ASF H:\MichaelJackson\Top Level 1\Subject 1\Session 1\male.ASF
:FULLY-SPECIFIED
:DEGREES
317
root 6.38265 16.5865 -23.18 -9.04168 13.188 -4.65389
lowerback 11.1563 -1.99558 -4.37878
upperback 2.65724 -2.98558 3.92603
thorax -3.02288 -1.46268 7.00969
lowerneck -4.28145 -2.88538 -1.42163
upperneck -4.70744 -3.72102 2.65239
head -0.65638 -1.84904 1.01946
rclavicle 1.59152e-014 -3.22031e-014
rhumerus -45.7446 12.5719 -63.8623
rradius 50.1422
rwrist 11.2486
rhand -22.8562 -21.7351
rfingers 7.12502
rthumb 3.58193 -51.6847
lclavicle 1.59152e-014 -3.22031e-014
lhumerus -33.8642 -6.48795 85.3779
lradius 45.6153
lwrist 13.5422
lhand 5.94566 14.1153
lfingers 7.12502
lthumb 31.2715 41.4646
rfemur -54.8275 -1.44216 -8.2026
rtibia 70.0041
rfoot 9.97799 -10.3869
rtoes 39.8794
lfemur -14.2082 6.07957 -14.3042
ltibia 40.6361
lfoot -18.9355 -12.9846
ltoes 16.6559
318
root 6.40354 16.5611 -23.1645 -9.2575 12.6435 -4.44972
lowerback 11.5512 -1.95604 -4.50586
upperback 2.81044 -2.96077 3.88616
thorax -3.07799 -1.4515 7.05462
lowerneck -4.27881 -2.77938 -1.32885
upperneck -4.69071 -3.58409 2.63976
head -0.656262 -1.78221 1.0011
rclavicle 6.98604e-014 -2.78299e-015
rhumerus -45.6692 12.1473 -63.0888
rradius 50.8047
rwrist 11.4844
rhand -21.7174 -21.7981
rfingers 7.12502
rthumb 4.68161 -51.7263
lclavicle 6.98604e-014 -2.78299e-015
lhumerus -33.2738 -6.60772 85.4293
lradius 45.9461
lwrist 13.813
lhand 6.46234 14.33
lfingers 7.12502
lthumb 31.7638 41.5831
rfemur -55.2699 -2.73537 -7.08304
rtibia 64.0411
rfoot 9.19619 -6.83851
rtoes 33.203
lfemur -13.9012 6.95711 -14.3947
ltibia 40.9796
lfoot -19.2609 -13.207
ltoes 17.0458
319
root 6.42345 16.5326 -23.1442 -9.38964 11.9509 -4.17032
lowerback 11.8597 -1.87823 -4.69156
upperback 2.94084 -2.89173 3.82625
thorax -3.11404 -1.41831 7.10172
lowerneck -4.29569 -2.66542 -1.25444
upperneck -4.63197 -3.43689 2.61193
head -0.640034 -1.70958 0.980335
rclavicle -2.19781e-014 1.70955e-014
rhumerus -45.537 11.4822 -62.2857
rradius 51.5457
rwrist 11.6059
rhand -20.2565 -21.7684
rfingers 7.12502
rthumb 6.09217 -51.6608
lclavicle -2.19781e-014 1.70955e-014
lhumerus -32.7769 -6.75774 85.4959
lradius 46.353
lwrist 14.2151
lhand 7.0642 14.5366
lfingers 7.12502
lthumb 32.3368 41.6744
rfemur -55.9695 -4.52617 -5.30888
rtibia 58.4134
rfoot 8.17419 -2.64299
rtoes 24.9297
lfemur -13.6394 7.87972 -14.5302
ltibia 41.3614
lfoot -19.6471 -13.2972
ltoes 17.2748
320
root 6.44145 16.503 -23.1207 -9.46221 11.1187 -3.82326
lowerback 12.1115 -1.76438 -4.94075
upperback 3.0517 -2.78308 3.74557
thorax -3.14351 -1.36503 7.15492
lowerneck -4.33146 -2.54041 -1.19913
upperneck -4.54035 -3.27499 2.5743
head -0.610622 -1.62899 0.959244
rclavicle -3.39798e-014 5.12864e-014
rhumerus -45.3411 10.5375 -61.4547
rradius 52.3645
rwrist 11.5908
rhand -18.4593 -21.6268
rfingers 7.12502
rthumb 7.82707 -51.4619
lclavicle -3.39798e-014 5.12864e-014
lhumerus -32.3775 -6.94307 85.566
lradius 46.8364
lwrist 14.7365
lhand 7.71988 14.7256
lfingers 7.12502
lthumb 32.9607 41.7341
rfemur -57.0955 -6.93009 -2.61601
rtibia 53.4703
rfoot 6.83895 2.08246
rtoes 15.4373
lfemur -13.3965 8.82243 -14.7066
ltibia 41.7516
lfoot -20.0488 -13.2416
ltoes 17.4061
321
root 6.45654 16.475 -23.0959 -9.50184 10.1811 -3.40752
lowerback 12.33 -1.6203 -5.27446
upperback 3.15106 -2.64616 3.64138
thorax -3.16867 -1.29736 7.22579
lowerneck -4.37613 -2.40461 -1.15881
upperneck -4.438 -3.09836 2.53417
head -0.576439 -1.54068 0.939913
rclavicle -2.95692e-015 -7.55382e-015
rhumerus -45.0747 9.26603 -60.5974
rradius 53.2454
rwrist 11.4457
rhand -16.316 -21.3592
rfingers 7.12502
rthumb 9.89531 -51.1066
lclavicle -2.95692e-015 -7.55382e-015
lhumerus -32.073 -7.17543 85.6309
lradius 47.3964
lwrist 15.3532
lhand 8.39129 14.8284
lfingers 7.12502
lthumb 33.599 41.7003
rfemur -58.8534 -10.041 1.29949
rtibia 49.5723
rfoot 5.25583 7.22665
rtoes 5.50447
lfemur -13.1612 9.74539 -14.9366
ltibia 42.1192
lfoot -20.4352 -13.0487
ltoes 17.4096
322
root 6.46794 16.4487 -23.0717 -9.54497 9.16757 -2.9157
lowerback 12.5553 -1.45373 -5.70325
upperback 3.24785 -2.49482 3.50396
thorax -3.20031 -1.22196 7.31361
lowerneck -4.42563 -2.25194 -1.1342
upperneck -4.33916 -2.89823 2.50826
head -0.542459 -1.44042 0.928003
rclavicle 2.4376e-014 2.38542e-014
rhumerus -44.7376 7.63526 -59.7318
rradius 54.1686
rwrist 11.1611
rhand -13.8369 -20.9476
rfingers 7.12502
rthumb 12.2864 -50.5667
lclavicle 2.4376e-014 2.38542e-014
lhumerus -31.8668 -7.45801 85.6742
lradius 48.0394
lwrist 16.0393
lhand 9.11216 15.0881
lfingers 7.12502
lthumb 34.2838 41.8084
rfemur -61.4737 -13.7706 6.65973
rtibia 47.0531
rfoot 3.68252 12.5352
rtoes -3.53876
lfemur -12.8774 10.6043 -15.2351
ltibia 42.4417
lfoot -20.8117 -12.6644
ltoes 17.2142
323
root 6.47475 16.4251 -23.0497 -9.61856 8.12965 -2.34909
lowerback 12.8033 -1.2787 -6.23637
upperback 3.35193 -2.35053 3.32902
thorax -3.23341 -1.15001 7.42236
lowerneck -4.46909 -2.08035 -1.12155
upperneck -4.26674 -2.67149 2.5057
head -0.517518 -1.32692 0.926134
rclavicle 2.12451e-014 -4.6118e-014
rhumerus -44.3326 5.62823 -58.8827
rradius 55.1189
rwrist 10.6913
rhand -11.1066 -20.4485
rfingers 7.12502
rthumb 14.9178 -49.8913
lclavicle 2.12451e-014 -4.6118e-014
lhumerus -31.7522 -7.79393 85.6855
lradius 48.7672
lwrist 16.7594
lhand 9.90328 15.395
lfingers 7.12502
lthumb 35.0346 41.943
rfemur -65.1039 -17.8125 13.4814
rtibia 46.1247
rfoot 2.48916 17.5857
rtoes -10.6459
lfemur -12.5536 11.3599 -15.6147
ltibia 42.7039
lfoot -21.1305 -12.126
ltoes 16.9172
324
root 6.4768 16.401 -23.03 -9.74623 7.11895 -1.69455
lowerback 13.0951 -1.10829 -6.8741
upperback 3.46908 -2.23349 3.10394
thorax -3.2703 -1.09166 7.54203
lowerneck -4.5058 -1.89095 -1.11423
upperneck -4.22534 -2.41971 2.53202
head -0.503215 -1.20108 0.934888
rclavicle -3.49364e-014 2.42517e-014
rhumerus -43.8831 3.24334 -58.0836
rradius 56.0879
rwrist 9.97019
rhand -8.21725 -19.8859
rfingers 7.12502
rthumb 17.6998 -49.1004
lclavicle -3.49364e-014 2.42517e-014
lhumerus -31.7276 -8.19203 85.6564
lradius 49.5799
lwrist 17.4791
lhand 10.743 15.7906
lfingers 7.12502
lthumb 35.8307 42.1485
rfemur -69.6585 -21.6165 21.3398
rtibia 46.8198
rfoot 1.85871 21.6764
rtoes -15.7976
lfemur -12.15 11.978 -16.0974
ltibia 42.9018
lfoot -21.4513 -11.3927
ltoes 16.2995
325
root 6.47452 16.3776 -23.014 -9.94729 6.1917 -0.950426
lowerback 13.4444 -0.956898 -7.6082
upperback 3.60307 -2.16468 2.82247
thorax -3.31051 -1.05757 7.66441
lowerneck -4.52829 -1.68483 -1.11168
upperneck -4.22018 -2.14422 2.59212
head -0.502439 -1.06366 0.955736
rclavicle 1.04859e-014 -8.74653e-015
rhumerus -43.4046 0.477673 -57.363
rradius 57.0469
rwrist 8.94165
rhand -5.34107 -19.3219
rfingers 7.12502
rthumb 20.4657 -48.2633
lclavicle 1.04859e-014 -8.74653e-015
lhumerus -31.7868 -8.65374 85.5838
lradius 50.4691
lwrist 18.1724
lhand 11.7183 16.284
lfingers 7.12502
lthumb 36.7542 42.4116
rfemur -74.6546 -24.6118 29.3503
rtibia 48.9581
rfoot 1.37033 23.9559
rtoes -19.9557
lfemur -11.6802 12.4477 -16.6965
ltibia 43.0324
lfoot -21.6978 -10.5389
ltoes 15.674
326
root 6.46862 16.3522 -23.0004 -10.2262 5.40506 -0.11499
lowerback 13.8527 -0.838365 -8.42574
upperback 3.75326 -2.1633 2.48133
thorax -3.35115 -1.05749 7.78115
lowerneck -4.53005 -1.46771 -1.10631
upperneck -4.2546 -1.85308 2.673
head -0.517524 -0.918863 0.983261
rclavicle -1.72694e-015 -1.23246e-014
rhumerus -42.944 -2.61528 -56.7552
rradius 58.0199
rwrist 7.47412
rhand -2.69295 -18.8357
rfingers 7.12502
rthumb 23.0086 -47.4824
lclavicle -1.72694e-015 -1.23246e-014
lhumerus -31.9186 -9.17937 85.4742
lradius 51.4158
lwrist 18.8201
lhand 12.8022 16.8146
lfingers 7.12502
lthumb 37.779 42.6736
rfemur -79.5008 -26.5988 36.6064
rtibia 52.2407
rfoot 0.441879 23.9798
rtoes -23.9157
lfemur -11.1201 12.772 -17.4172
ltibia 43.0991
lfoot -21.9528 -9.57181
ltoes 14.7441
